<svg xmlns="http://www.w3.org/2000/svg" viewBox="0 0 1600 958" width="1600" height="958" font-family="ui-monospace, Menlo, Consolas, monospace" font-size="12">
<rect width="1600" height="958" fill="white"/>
<text x="800.0" y="28.0" text-anchor="middle" font-size="16" font-weight="bold">32-point radix-2 DIT FFT  (inputs bit-reversed, outputs natural)</text>
<text x="225.0" y="48.0" text-anchor="middle" font-weight="bold" fill="#444">Stage 1  (W2)</text>
<text x="455.0" y="48.0" text-anchor="middle" font-weight="bold" fill="#444">Stage 2  (W4)</text>
<text x="685.0" y="48.0" text-anchor="middle" font-weight="bold" fill="#444">Stage 3  (W8)</text>
<text x="915.0" y="48.0" text-anchor="middle" font-weight="bold" fill="#444">Stage 4  (W16)</text>
<text x="1145.0" y="48.0" text-anchor="middle" font-weight="bold" fill="#444">Stage 5  (W32)</text>
<text x="98.0" y="64.0" text-anchor="end">x[0]</text>
<text x="98.0" y="92.0" text-anchor="end">x[16]</text>
<text x="98.0" y="120.0" text-anchor="end">x[8]</text>
<text x="98.0" y="148.0" text-anchor="end">x[24]</text>
<text x="98.0" y="176.0" text-anchor="end">x[4]</text>
<text x="98.0" y="204.0" text-anchor="end">x[20]</text>
<text x="98.0" y="232.0" text-anchor="end">x[12]</text>
<text x="98.0" y="260.0" text-anchor="end">x[28]</text>
<text x="98.0" y="288.0" text-anchor="end">x[2]</text>
<text x="98.0" y="316.0" text-anchor="end">x[18]</text>
<text x="98.0" y="344.0" text-anchor="end">x[10]</text>
<text x="98.0" y="372.0" text-anchor="end">x[26]</text>
<text x="98.0" y="400.0" text-anchor="end">x[6]</text>
<text x="98.0" y="428.0" text-anchor="end">x[22]</text>
<text x="98.0" y="456.0" text-anchor="end">x[14]</text>
<text x="98.0" y="484.0" text-anchor="end">x[30]</text>
<text x="98.0" y="512.0" text-anchor="end">x[1]</text>
<text x="98.0" y="540.0" text-anchor="end">x[17]</text>
<text x="98.0" y="568.0" text-anchor="end">x[9]</text>
<text x="98.0" y="596.0" text-anchor="end">x[25]</text>
<text x="98.0" y="624.0" text-anchor="end">x[5]</text>
<text x="98.0" y="652.0" text-anchor="end">x[21]</text>
<text x="98.0" y="680.0" text-anchor="end">x[13]</text>
<text x="98.0" y="708.0" text-anchor="end">x[29]</text>
<text x="98.0" y="736.0" text-anchor="end">x[3]</text>
<text x="98.0" y="764.0" text-anchor="end">x[19]</text>
<text x="98.0" y="792.0" text-anchor="end">x[11]</text>
<text x="98.0" y="820.0" text-anchor="end">x[27]</text>
<text x="98.0" y="848.0" text-anchor="end">x[7]</text>
<text x="98.0" y="876.0" text-anchor="end">x[23]</text>
<text x="98.0" y="904.0" text-anchor="end">x[15]</text>
<text x="98.0" y="932.0" text-anchor="end">x[31]</text>
<text x="1502.0" y="64.0" text-anchor="start" font-weight="bold">X[0]</text>
<text x="1502.0" y="92.0" text-anchor="start" font-weight="bold">X[1]</text>
<text x="1502.0" y="120.0" text-anchor="start" font-weight="bold">X[2]</text>
<text x="1502.0" y="148.0" text-anchor="start" font-weight="bold">X[3]</text>
<text x="1502.0" y="176.0" text-anchor="start" font-weight="bold">X[4]</text>
<text x="1502.0" y="204.0" text-anchor="start" font-weight="bold">X[5]</text>
<text x="1502.0" y="232.0" text-anchor="start" font-weight="bold">X[6]</text>
<text x="1502.0" y="260.0" text-anchor="start" font-weight="bold">X[7]</text>
<text x="1502.0" y="288.0" text-anchor="start" font-weight="bold">X[8]</text>
<text x="1502.0" y="316.0" text-anchor="start" font-weight="bold">X[9]</text>
<text x="1502.0" y="344.0" text-anchor="start" font-weight="bold">X[10]</text>
<text x="1502.0" y="372.0" text-anchor="start" font-weight="bold">X[11]</text>
<text x="1502.0" y="400.0" text-anchor="start" font-weight="bold">X[12]</text>
<text x="1502.0" y="428.0" text-anchor="start" font-weight="bold">X[13]</text>
<text x="1502.0" y="456.0" text-anchor="start" font-weight="bold">X[14]</text>
<text x="1502.0" y="484.0" text-anchor="start" font-weight="bold">X[15]</text>
<text x="1502.0" y="512.0" text-anchor="start" font-weight="bold">X[16]</text>
<text x="1502.0" y="540.0" text-anchor="start" font-weight="bold">X[17]</text>
<text x="1502.0" y="568.0" text-anchor="start" font-weight="bold">X[18]</text>
<text x="1502.0" y="596.0" text-anchor="start" font-weight="bold">X[19]</text>
<text x="1502.0" y="624.0" text-anchor="start" font-weight="bold">X[20]</text>
<text x="1502.0" y="652.0" text-anchor="start" font-weight="bold">X[21]</text>
<text x="1502.0" y="680.0" text-anchor="start" font-weight="bold">X[22]</text>
<text x="1502.0" y="708.0" text-anchor="start" font-weight="bold">X[23]</text>
<text x="1502.0" y="736.0" text-anchor="start" font-weight="bold">X[24]</text>
<text x="1502.0" y="764.0" text-anchor="start" font-weight="bold">X[25]</text>
<text x="1502.0" y="792.0" text-anchor="start" font-weight="bold">X[26]</text>
<text x="1502.0" y="820.0" text-anchor="start" font-weight="bold">X[27]</text>
<text x="1502.0" y="848.0" text-anchor="start" font-weight="bold">X[28]</text>
<text x="1502.0" y="876.0" text-anchor="start" font-weight="bold">X[29]</text>
<text x="1502.0" y="904.0" text-anchor="start" font-weight="bold">X[30]</text>
<text x="1502.0" y="932.0" text-anchor="start" font-weight="bold">X[31]</text>
<circle cx="110.0" cy="60.0" r="2.5" fill="black"/>
<circle cx="110.0" cy="88.0" r="2.5" fill="black"/>
<circle cx="110.0" cy="116.0" r="2.5" fill="black"/>
<circle cx="110.0" cy="144.0" r="2.5" fill="black"/>
<circle cx="110.0" cy="172.0" r="2.5" fill="black"/>
<circle cx="110.0" cy="200.0" r="2.5" fill="black"/>
<circle cx="110.0" cy="228.0" r="2.5" fill="black"/>
<circle cx="110.0" cy="256.0" r="2.5" fill="black"/>
<circle cx="110.0" cy="284.0" r="2.5" fill="black"/>
<circle cx="110.0" cy="312.0" r="2.5" fill="black"/>
<circle cx="110.0" cy="340.0" r="2.5" fill="black"/>
<circle cx="110.0" cy="368.0" r="2.5" fill="black"/>
<circle cx="110.0" cy="396.0" r="2.5" fill="black"/>
<circle cx="110.0" cy="424.0" r="2.5" fill="black"/>
<circle cx="110.0" cy="452.0" r="2.5" fill="black"/>
<circle cx="110.0" cy="480.0" r="2.5" fill="black"/>
<circle cx="110.0" cy="508.0" r="2.5" fill="black"/>
<circle cx="110.0" cy="536.0" r="2.5" fill="black"/>
<circle cx="110.0" cy="564.0" r="2.5" fill="black"/>
<circle cx="110.0" cy="592.0" r="2.5" fill="black"/>
<circle cx="110.0" cy="620.0" r="2.5" fill="black"/>
<circle cx="110.0" cy="648.0" r="2.5" fill="black"/>
<circle cx="110.0" cy="676.0" r="2.5" fill="black"/>
<circle cx="110.0" cy="704.0" r="2.5" fill="black"/>
<circle cx="110.0" cy="732.0" r="2.5" fill="black"/>
<circle cx="110.0" cy="760.0" r="2.5" fill="black"/>
<circle cx="110.0" cy="788.0" r="2.5" fill="black"/>
<circle cx="110.0" cy="816.0" r="2.5" fill="black"/>
<circle cx="110.0" cy="844.0" r="2.5" fill="black"/>
<circle cx="110.0" cy="872.0" r="2.5" fill="black"/>
<circle cx="110.0" cy="900.0" r="2.5" fill="black"/>
<circle cx="110.0" cy="928.0" r="2.5" fill="black"/>
<circle cx="340.0" cy="60.0" r="2.5" fill="black"/>
<circle cx="340.0" cy="88.0" r="2.5" fill="black"/>
<circle cx="340.0" cy="116.0" r="2.5" fill="black"/>
<circle cx="340.0" cy="144.0" r="2.5" fill="black"/>
<circle cx="340.0" cy="172.0" r="2.5" fill="black"/>
<circle cx="340.0" cy="200.0" r="2.5" fill="black"/>
<circle cx="340.0" cy="228.0" r="2.5" fill="black"/>
<circle cx="340.0" cy="256.0" r="2.5" fill="black"/>
<circle cx="340.0" cy="284.0" r="2.5" fill="black"/>
<circle cx="340.0" cy="312.0" r="2.5" fill="black"/>
<circle cx="340.0" cy="340.0" r="2.5" fill="black"/>
<circle cx="340.0" cy="368.0" r="2.5" fill="black"/>
<circle cx="340.0" cy="396.0" r="2.5" fill="black"/>
<circle cx="340.0" cy="424.0" r="2.5" fill="black"/>
<circle cx="340.0" cy="452.0" r="2.5" fill="black"/>
<circle cx="340.0" cy="480.0" r="2.5" fill="black"/>
<circle cx="340.0" cy="508.0" r="2.5" fill="black"/>
<circle cx="340.0" cy="536.0" r="2.5" fill="black"/>
<circle cx="340.0" cy="564.0" r="2.5" fill="black"/>
<circle cx="340.0" cy="592.0" r="2.5" fill="black"/>
<circle cx="340.0" cy="620.0" r="2.5" fill="black"/>
<circle cx="340.0" cy="648.0" r="2.5" fill="black"/>
<circle cx="340.0" cy="676.0" r="2.5" fill="black"/>
<circle cx="340.0" cy="704.0" r="2.5" fill="black"/>
<circle cx="340.0" cy="732.0" r="2.5" fill="black"/>
<circle cx="340.0" cy="760.0" r="2.5" fill="black"/>
<circle cx="340.0" cy="788.0" r="2.5" fill="black"/>
<circle cx="340.0" cy="816.0" r="2.5" fill="black"/>
<circle cx="340.0" cy="844.0" r="2.5" fill="black"/>
<circle cx="340.0" cy="872.0" r="2.5" fill="black"/>
<circle cx="340.0" cy="900.0" r="2.5" fill="black"/>
<circle cx="340.0" cy="928.0" r="2.5" fill="black"/>
<circle cx="570.0" cy="60.0" r="2.5" fill="black"/>
<circle cx="570.0" cy="88.0" r="2.5" fill="black"/>
<circle cx="570.0" cy="116.0" r="2.5" fill="black"/>
<circle cx="570.0" cy="144.0" r="2.5" fill="black"/>
<circle cx="570.0" cy="172.0" r="2.5" fill="black"/>
<circle cx="570.0" cy="200.0" r="2.5" fill="black"/>
<circle cx="570.0" cy="228.0" r="2.5" fill="black"/>
<circle cx="570.0" cy="256.0" r="2.5" fill="black"/>
<circle cx="570.0" cy="284.0" r="2.5" fill="black"/>
<circle cx="570.0" cy="312.0" r="2.5" fill="black"/>
<circle cx="570.0" cy="340.0" r="2.5" fill="black"/>
<circle cx="570.0" cy="368.0" r="2.5" fill="black"/>
<circle cx="570.0" cy="396.0" r="2.5" fill="black"/>
<circle cx="570.0" cy="424.0" r="2.5" fill="black"/>
<circle cx="570.0" cy="452.0" r="2.5" fill="black"/>
<circle cx="570.0" cy="480.0" r="2.5" fill="black"/>
<circle cx="570.0" cy="508.0" r="2.5" fill="black"/>
<circle cx="570.0" cy="536.0" r="2.5" fill="black"/>
<circle cx="570.0" cy="564.0" r="2.5" fill="black"/>
<circle cx="570.0" cy="592.0" r="2.5" fill="black"/>
<circle cx="570.0" cy="620.0" r="2.5" fill="black"/>
<circle cx="570.0" cy="648.0" r="2.5" fill="black"/>
<circle cx="570.0" cy="676.0" r="2.5" fill="black"/>
<circle cx="570.0" cy="704.0" r="2.5" fill="black"/>
<circle cx="570.0" cy="732.0" r="2.5" fill="black"/>
<circle cx="570.0" cy="760.0" r="2.5" fill="black"/>
<circle cx="570.0" cy="788.0" r="2.5" fill="black"/>
<circle cx="570.0" cy="816.0" r="2.5" fill="black"/>
<circle cx="570.0" cy="844.0" r="2.5" fill="black"/>
<circle cx="570.0" cy="872.0" r="2.5" fill="black"/>
<circle cx="570.0" cy="900.0" r="2.5" fill="black"/>
<circle cx="570.0" cy="928.0" r="2.5" fill="black"/>
<circle cx="800.0" cy="60.0" r="2.5" fill="black"/>
<circle cx="800.0" cy="88.0" r="2.5" fill="black"/>
<circle cx="800.0" cy="116.0" r="2.5" fill="black"/>
<circle cx="800.0" cy="144.0" r="2.5" fill="black"/>
<circle cx="800.0" cy="172.0" r="2.5" fill="black"/>
<circle cx="800.0" cy="200.0" r="2.5" fill="black"/>
<circle cx="800.0" cy="228.0" r="2.5" fill="black"/>
<circle cx="800.0" cy="256.0" r="2.5" fill="black"/>
<circle cx="800.0" cy="284.0" r="2.5" fill="black"/>
<circle cx="800.0" cy="312.0" r="2.5" fill="black"/>
<circle cx="800.0" cy="340.0" r="2.5" fill="black"/>
<circle cx="800.0" cy="368.0" r="2.5" fill="black"/>
<circle cx="800.0" cy="396.0" r="2.5" fill="black"/>
<circle cx="800.0" cy="424.0" r="2.5" fill="black"/>
<circle cx="800.0" cy="452.0" r="2.5" fill="black"/>
<circle cx="800.0" cy="480.0" r="2.5" fill="black"/>
<circle cx="800.0" cy="508.0" r="2.5" fill="black"/>
<circle cx="800.0" cy="536.0" r="2.5" fill="black"/>
<circle cx="800.0" cy="564.0" r="2.5" fill="black"/>
<circle cx="800.0" cy="592.0" r="2.5" fill="black"/>
<circle cx="800.0" cy="620.0" r="2.5" fill="black"/>
<circle cx="800.0" cy="648.0" r="2.5" fill="black"/>
<circle cx="800.0" cy="676.0" r="2.5" fill="black"/>
<circle cx="800.0" cy="704.0" r="2.5" fill="black"/>
<circle cx="800.0" cy="732.0" r="2.5" fill="black"/>
<circle cx="800.0" cy="760.0" r="2.5" fill="black"/>
<circle cx="800.0" cy="788.0" r="2.5" fill="black"/>
<circle cx="800.0" cy="816.0" r="2.5" fill="black"/>
<circle cx="800.0" cy="844.0" r="2.5" fill="black"/>
<circle cx="800.0" cy="872.0" r="2.5" fill="black"/>
<circle cx="800.0" cy="900.0" r="2.5" fill="black"/>
<circle cx="800.0" cy="928.0" r="2.5" fill="black"/>
<circle cx="1030.0" cy="60.0" r="2.5" fill="black"/>
<circle cx="1030.0" cy="88.0" r="2.5" fill="black"/>
<circle cx="1030.0" cy="116.0" r="2.5" fill="black"/>
<circle cx="1030.0" cy="144.0" r="2.5" fill="black"/>
<circle cx="1030.0" cy="172.0" r="2.5" fill="black"/>
<circle cx="1030.0" cy="200.0" r="2.5" fill="black"/>
<circle cx="1030.0" cy="228.0" r="2.5" fill="black"/>
<circle cx="1030.0" cy="256.0" r="2.5" fill="black"/>
<circle cx="1030.0" cy="284.0" r="2.5" fill="black"/>
<circle cx="1030.0" cy="312.0" r="2.5" fill="black"/>
<circle cx="1030.0" cy="340.0" r="2.5" fill="black"/>
<circle cx="1030.0" cy="368.0" r="2.5" fill="black"/>
<circle cx="1030.0" cy="396.0" r="2.5" fill="black"/>
<circle cx="1030.0" cy="424.0" r="2.5" fill="black"/>
<circle cx="1030.0" cy="452.0" r="2.5" fill="black"/>
<circle cx="1030.0" cy="480.0" r="2.5" fill="black"/>
<circle cx="1030.0" cy="508.0" r="2.5" fill="black"/>
<circle cx="1030.0" cy="536.0" r="2.5" fill="black"/>
<circle cx="1030.0" cy="564.0" r="2.5" fill="black"/>
<circle cx="1030.0" cy="592.0" r="2.5" fill="black"/>
<circle cx="1030.0" cy="620.0" r="2.5" fill="black"/>
<circle cx="1030.0" cy="648.0" r="2.5" fill="black"/>
<circle cx="1030.0" cy="676.0" r="2.5" fill="black"/>
<circle cx="1030.0" cy="704.0" r="2.5" fill="black"/>
<circle cx="1030.0" cy="732.0" r="2.5" fill="black"/>
<circle cx="1030.0" cy="760.0" r="2.5" fill="black"/>
<circle cx="1030.0" cy="788.0" r="2.5" fill="black"/>
<circle cx="1030.0" cy="816.0" r="2.5" fill="black"/>
<circle cx="1030.0" cy="844.0" r="2.5" fill="black"/>
<circle cx="1030.0" cy="872.0" r="2.5" fill="black"/>
<circle cx="1030.0" cy="900.0" r="2.5" fill="black"/>
<circle cx="1030.0" cy="928.0" r="2.5" fill="black"/>
<circle cx="1260.0" cy="60.0" r="2.5" fill="black"/>
<circle cx="1260.0" cy="88.0" r="2.5" fill="black"/>
<circle cx="1260.0" cy="116.0" r="2.5" fill="black"/>
<circle cx="1260.0" cy="144.0" r="2.5" fill="black"/>
<circle cx="1260.0" cy="172.0" r="2.5" fill="black"/>
<circle cx="1260.0" cy="200.0" r="2.5" fill="black"/>
<circle cx="1260.0" cy="228.0" r="2.5" fill="black"/>
<circle cx="1260.0" cy="256.0" r="2.5" fill="black"/>
<circle cx="1260.0" cy="284.0" r="2.5" fill="black"/>
<circle cx="1260.0" cy="312.0" r="2.5" fill="black"/>
<circle cx="1260.0" cy="340.0" r="2.5" fill="black"/>
<circle cx="1260.0" cy="368.0" r="2.5" fill="black"/>
<circle cx="1260.0" cy="396.0" r="2.5" fill="black"/>
<circle cx="1260.0" cy="424.0" r="2.5" fill="black"/>
<circle cx="1260.0" cy="452.0" r="2.5" fill="black"/>
<circle cx="1260.0" cy="480.0" r="2.5" fill="black"/>
<circle cx="1260.0" cy="508.0" r="2.5" fill="black"/>
<circle cx="1260.0" cy="536.0" r="2.5" fill="black"/>
<circle cx="1260.0" cy="564.0" r="2.5" fill="black"/>
<circle cx="1260.0" cy="592.0" r="2.5" fill="black"/>
<circle cx="1260.0" cy="620.0" r="2.5" fill="black"/>
<circle cx="1260.0" cy="648.0" r="2.5" fill="black"/>
<circle cx="1260.0" cy="676.0" r="2.5" fill="black"/>
<circle cx="1260.0" cy="704.0" r="2.5" fill="black"/>
<circle cx="1260.0" cy="732.0" r="2.5" fill="black"/>
<circle cx="1260.0" cy="760.0" r="2.5" fill="black"/>
<circle cx="1260.0" cy="788.0" r="2.5" fill="black"/>
<circle cx="1260.0" cy="816.0" r="2.5" fill="black"/>
<circle cx="1260.0" cy="844.0" r="2.5" fill="black"/>
<circle cx="1260.0" cy="872.0" r="2.5" fill="black"/>
<circle cx="1260.0" cy="900.0" r="2.5" fill="black"/>
<circle cx="1260.0" cy="928.0" r="2.5" fill="black"/>
<circle cx="1490.0" cy="60.0" r="2.5" fill="black"/>
<circle cx="1490.0" cy="88.0" r="2.5" fill="black"/>
<circle cx="1490.0" cy="116.0" r="2.5" fill="black"/>
<circle cx="1490.0" cy="144.0" r="2.5" fill="black"/>
<circle cx="1490.0" cy="172.0" r="2.5" fill="black"/>
<circle cx="1490.0" cy="200.0" r="2.5" fill="black"/>
<circle cx="1490.0" cy="228.0" r="2.5" fill="black"/>
<circle cx="1490.0" cy="256.0" r="2.5" fill="black"/>
<circle cx="1490.0" cy="284.0" r="2.5" fill="black"/>
<circle cx="1490.0" cy="312.0" r="2.5" fill="black"/>
<circle cx="1490.0" cy="340.0" r="2.5" fill="black"/>
<circle cx="1490.0" cy="368.0" r="2.5" fill="black"/>
<circle cx="1490.0" cy="396.0" r="2.5" fill="black"/>
<circle cx="1490.0" cy="424.0" r="2.5" fill="black"/>
<circle cx="1490.0" cy="452.0" r="2.5" fill="black"/>
<circle cx="1490.0" cy="480.0" r="2.5" fill="black"/>
<circle cx="1490.0" cy="508.0" r="2.5" fill="black"/>
<circle cx="1490.0" cy="536.0" r="2.5" fill="black"/>
<circle cx="1490.0" cy="564.0" r="2.5" fill="black"/>
<circle cx="1490.0" cy="592.0" r="2.5" fill="black"/>
<circle cx="1490.0" cy="620.0" r="2.5" fill="black"/>
<circle cx="1490.0" cy="648.0" r="2.5" fill="black"/>
<circle cx="1490.0" cy="676.0" r="2.5" fill="black"/>
<circle cx="1490.0" cy="704.0" r="2.5" fill="black"/>
<circle cx="1490.0" cy="732.0" r="2.5" fill="black"/>
<circle cx="1490.0" cy="760.0" r="2.5" fill="black"/>
<circle cx="1490.0" cy="788.0" r="2.5" fill="black"/>
<circle cx="1490.0" cy="816.0" r="2.5" fill="black"/>
<circle cx="1490.0" cy="844.0" r="2.5" fill="black"/>
<circle cx="1490.0" cy="872.0" r="2.5" fill="black"/>
<circle cx="1490.0" cy="900.0" r="2.5" fill="black"/>
<circle cx="1490.0" cy="928.0" r="2.5" fill="black"/>
<line x1="110.0" y1="60.0" x2="340.0" y2="60.0" stroke="black"/>
<line x1="110.0" y1="88.0" x2="340.0" y2="88.0" stroke="black"/>
<line x1="110.0" y1="60.0" x2="340.0" y2="88.0" stroke="#888"/>
<line x1="110.0" y1="88.0" x2="340.0" y2="60.0" stroke="#888"/>
<text x="151.4" y="56.0" fill="#0a6" font-size="10">W2^0</text>
<line x1="110.0" y1="116.0" x2="340.0" y2="116.0" stroke="black"/>
<line x1="110.0" y1="144.0" x2="340.0" y2="144.0" stroke="black"/>
<line x1="110.0" y1="116.0" x2="340.0" y2="144.0" stroke="#888"/>
<line x1="110.0" y1="144.0" x2="340.0" y2="116.0" stroke="#888"/>
<text x="151.4" y="112.0" fill="#0a6" font-size="10">W2^0</text>
<line x1="110.0" y1="172.0" x2="340.0" y2="172.0" stroke="black"/>
<line x1="110.0" y1="200.0" x2="340.0" y2="200.0" stroke="black"/>
<line x1="110.0" y1="172.0" x2="340.0" y2="200.0" stroke="#888"/>
<line x1="110.0" y1="200.0" x2="340.0" y2="172.0" stroke="#888"/>
<text x="151.4" y="168.0" fill="#0a6" font-size="10">W2^0</text>
<line x1="110.0" y1="228.0" x2="340.0" y2="228.0" stroke="black"/>
<line x1="110.0" y1="256.0" x2="340.0" y2="256.0" stroke="black"/>
<line x1="110.0" y1="228.0" x2="340.0" y2="256.0" stroke="#888"/>
<line x1="110.0" y1="256.0" x2="340.0" y2="228.0" stroke="#888"/>
<text x="151.4" y="224.0" fill="#0a6" font-size="10">W2^0</text>
<line x1="110.0" y1="284.0" x2="340.0" y2="284.0" stroke="black"/>
<line x1="110.0" y1="312.0" x2="340.0" y2="312.0" stroke="black"/>
<line x1="110.0" y1="284.0" x2="340.0" y2="312.0" stroke="#888"/>
<line x1="110.0" y1="312.0" x2="340.0" y2="284.0" stroke="#888"/>
<text x="151.4" y="280.0" fill="#0a6" font-size="10">W2^0</text>
<line x1="110.0" y1="340.0" x2="340.0" y2="340.0" stroke="black"/>
<line x1="110.0" y1="368.0" x2="340.0" y2="368.0" stroke="black"/>
<line x1="110.0" y1="340.0" x2="340.0" y2="368.0" stroke="#888"/>
<line x1="110.0" y1="368.0" x2="340.0" y2="340.0" stroke="#888"/>
<text x="151.4" y="336.0" fill="#0a6" font-size="10">W2^0</text>
<line x1="110.0" y1="396.0" x2="340.0" y2="396.0" stroke="black"/>
<line x1="110.0" y1="424.0" x2="340.0" y2="424.0" stroke="black"/>
<line x1="110.0" y1="396.0" x2="340.0" y2="424.0" stroke="#888"/>
<line x1="110.0" y1="424.0" x2="340.0" y2="396.0" stroke="#888"/>
<text x="151.4" y="392.0" fill="#0a6" font-size="10">W2^0</text>
<line x1="110.0" y1="452.0" x2="340.0" y2="452.0" stroke="black"/>
<line x1="110.0" y1="480.0" x2="340.0" y2="480.0" stroke="black"/>
<line x1="110.0" y1="452.0" x2="340.0" y2="480.0" stroke="#888"/>
<line x1="110.0" y1="480.0" x2="340.0" y2="452.0" stroke="#888"/>
<text x="151.4" y="448.0" fill="#0a6" font-size="10">W2^0</text>
<line x1="110.0" y1="508.0" x2="340.0" y2="508.0" stroke="black"/>
<line x1="110.0" y1="536.0" x2="340.0" y2="536.0" stroke="black"/>
<line x1="110.0" y1="508.0" x2="340.0" y2="536.0" stroke="#888"/>
<line x1="110.0" y1="536.0" x2="340.0" y2="508.0" stroke="#888"/>
<text x="151.4" y="504.0" fill="#0a6" font-size="10">W2^0</text>
<line x1="110.0" y1="564.0" x2="340.0" y2="564.0" stroke="black"/>
<line x1="110.0" y1="592.0" x2="340.0" y2="592.0" stroke="black"/>
<line x1="110.0" y1="564.0" x2="340.0" y2="592.0" stroke="#888"/>
<line x1="110.0" y1="592.0" x2="340.0" y2="564.0" stroke="#888"/>
<text x="151.4" y="560.0" fill="#0a6" font-size="10">W2^0</text>
<line x1="110.0" y1="620.0" x2="340.0" y2="620.0" stroke="black"/>
<line x1="110.0" y1="648.0" x2="340.0" y2="648.0" stroke="black"/>
<line x1="110.0" y1="620.0" x2="340.0" y2="648.0" stroke="#888"/>
<line x1="110.0" y1="648.0" x2="340.0" y2="620.0" stroke="#888"/>
<text x="151.4" y="616.0" fill="#0a6" font-size="10">W2^0</text>
<line x1="110.0" y1="676.0" x2="340.0" y2="676.0" stroke="black"/>
<line x1="110.0" y1="704.0" x2="340.0" y2="704.0" stroke="black"/>
<line x1="110.0" y1="676.0" x2="340.0" y2="704.0" stroke="#888"/>
<line x1="110.0" y1="704.0" x2="340.0" y2="676.0" stroke="#888"/>
<text x="151.4" y="672.0" fill="#0a6" font-size="10">W2^0</text>
<line x1="110.0" y1="732.0" x2="340.0" y2="732.0" stroke="black"/>
<line x1="110.0" y1="760.0" x2="340.0" y2="760.0" stroke="black"/>
<line x1="110.0" y1="732.0" x2="340.0" y2="760.0" stroke="#888"/>
<line x1="110.0" y1="760.0" x2="340.0" y2="732.0" stroke="#888"/>
<text x="151.4" y="728.0" fill="#0a6" font-size="10">W2^0</text>
<line x1="110.0" y1="788.0" x2="340.0" y2="788.0" stroke="black"/>
<line x1="110.0" y1="816.0" x2="340.0" y2="816.0" stroke="black"/>
<line x1="110.0" y1="788.0" x2="340.0" y2="816.0" stroke="#888"/>
<line x1="110.0" y1="816.0" x2="340.0" y2="788.0" stroke="#888"/>
<text x="151.4" y="784.0" fill="#0a6" font-size="10">W2^0</text>
<line x1="110.0" y1="844.0" x2="340.0" y2="844.0" stroke="black"/>
<line x1="110.0" y1="872.0" x2="340.0" y2="872.0" stroke="black"/>
<line x1="110.0" y1="844.0" x2="340.0" y2="872.0" stroke="#888"/>
<line x1="110.0" y1="872.0" x2="340.0" y2="844.0" stroke="#888"/>
<text x="151.4" y="840.0" fill="#0a6" font-size="10">W2^0</text>
<line x1="110.0" y1="900.0" x2="340.0" y2="900.0" stroke="black"/>
<line x1="110.0" y1="928.0" x2="340.0" y2="928.0" stroke="black"/>
<line x1="110.0" y1="900.0" x2="340.0" y2="928.0" stroke="#888"/>
<line x1="110.0" y1="928.0" x2="340.0" y2="900.0" stroke="#888"/>
<text x="151.4" y="896.0" fill="#0a6" font-size="10">W2^0</text>
<line x1="340.0" y1="60.0" x2="570.0" y2="60.0" stroke="black"/>
<line x1="340.0" y1="116.0" x2="570.0" y2="116.0" stroke="black"/>
<line x1="340.0" y1="60.0" x2="570.0" y2="116.0" stroke="#888"/>
<line x1="340.0" y1="116.0" x2="570.0" y2="60.0" stroke="#888"/>
<text x="381.4" y="56.0" fill="#0a6" font-size="10">W4^0</text>
<line x1="340.0" y1="88.0" x2="570.0" y2="88.0" stroke="black"/>
<line x1="340.0" y1="144.0" x2="570.0" y2="144.0" stroke="black"/>
<line x1="340.0" y1="88.0" x2="570.0" y2="144.0" stroke="#888"/>
<line x1="340.0" y1="144.0" x2="570.0" y2="88.0" stroke="#888"/>
<text x="381.4" y="84.0" fill="#0a6" font-size="10">W4^1</text>
<line x1="340.0" y1="172.0" x2="570.0" y2="172.0" stroke="black"/>
<line x1="340.0" y1="228.0" x2="570.0" y2="228.0" stroke="black"/>
<line x1="340.0" y1="172.0" x2="570.0" y2="228.0" stroke="#888"/>
<line x1="340.0" y1="228.0" x2="570.0" y2="172.0" stroke="#888"/>
<text x="381.4" y="168.0" fill="#0a6" font-size="10">W4^0</text>
<line x1="340.0" y1="200.0" x2="570.0" y2="200.0" stroke="black"/>
<line x1="340.0" y1="256.0" x2="570.0" y2="256.0" stroke="black"/>
<line x1="340.0" y1="200.0" x2="570.0" y2="256.0" stroke="#888"/>
<line x1="340.0" y1="256.0" x2="570.0" y2="200.0" stroke="#888"/>
<text x="381.4" y="196.0" fill="#0a6" font-size="10">W4^1</text>
<line x1="340.0" y1="284.0" x2="570.0" y2="284.0" stroke="black"/>
<line x1="340.0" y1="340.0" x2="570.0" y2="340.0" stroke="black"/>
<line x1="340.0" y1="284.0" x2="570.0" y2="340.0" stroke="#888"/>
<line x1="340.0" y1="340.0" x2="570.0" y2="284.0" stroke="#888"/>
<text x="381.4" y="280.0" fill="#0a6" font-size="10">W4^0</text>
<line x1="340.0" y1="312.0" x2="570.0" y2="312.0" stroke="black"/>
<line x1="340.0" y1="368.0" x2="570.0" y2="368.0" stroke="black"/>
<line x1="340.0" y1="312.0" x2="570.0" y2="368.0" stroke="#888"/>
<line x1="340.0" y1="368.0" x2="570.0" y2="312.0" stroke="#888"/>
<text x="381.4" y="308.0" fill="#0a6" font-size="10">W4^1</text>
<line x1="340.0" y1="396.0" x2="570.0" y2="396.0" stroke="black"/>
<line x1="340.0" y1="452.0" x2="570.0" y2="452.0" stroke="black"/>
<line x1="340.0" y1="396.0" x2="570.0" y2="452.0" stroke="#888"/>
<line x1="340.0" y1="452.0" x2="570.0" y2="396.0" stroke="#888"/>
<text x="381.4" y="392.0" fill="#0a6" font-size="10">W4^0</text>
<line x1="340.0" y1="424.0" x2="570.0" y2="424.0" stroke="black"/>
<line x1="340.0" y1="480.0" x2="570.0" y2="480.0" stroke="black"/>
<line x1="340.0" y1="424.0" x2="570.0" y2="480.0" stroke="#888"/>
<line x1="340.0" y1="480.0" x2="570.0" y2="424.0" stroke="#888"/>
<text x="381.4" y="420.0" fill="#0a6" font-size="10">W4^1</text>
<line x1="340.0" y1="508.0" x2="570.0" y2="508.0" stroke="black"/>
<line x1="340.0" y1="564.0" x2="570.0" y2="564.0" stroke="black"/>
<line x1="340.0" y1="508.0" x2="570.0" y2="564.0" stroke="#888"/>
<line x1="340.0" y1="564.0" x2="570.0" y2="508.0" stroke="#888"/>
<text x="381.4" y="504.0" fill="#0a6" font-size="10">W4^0</text>
<line x1="340.0" y1="536.0" x2="570.0" y2="536.0" stroke="black"/>
<line x1="340.0" y1="592.0" x2="570.0" y2="592.0" stroke="black"/>
<line x1="340.0" y1="536.0" x2="570.0" y2="592.0" stroke="#888"/>
<line x1="340.0" y1="592.0" x2="570.0" y2="536.0" stroke="#888"/>
<text x="381.4" y="532.0" fill="#0a6" font-size="10">W4^1</text>
<line x1="340.0" y1="620.0" x2="570.0" y2="620.0" stroke="black"/>
<line x1="340.0" y1="676.0" x2="570.0" y2="676.0" stroke="black"/>
<line x1="340.0" y1="620.0" x2="570.0" y2="676.0" stroke="#888"/>
<line x1="340.0" y1="676.0" x2="570.0" y2="620.0" stroke="#888"/>
<text x="381.4" y="616.0" fill="#0a6" font-size="10">W4^0</text>
<line x1="340.0" y1="648.0" x2="570.0" y2="648.0" stroke="black"/>
<line x1="340.0" y1="704.0" x2="570.0" y2="704.0" stroke="black"/>
<line x1="340.0" y1="648.0" x2="570.0" y2="704.0" stroke="#888"/>
<line x1="340.0" y1="704.0" x2="570.0" y2="648.0" stroke="#888"/>
<text x="381.4" y="644.0" fill="#0a6" font-size="10">W4^1</text>
<line x1="340.0" y1="732.0" x2="570.0" y2="732.0" stroke="black"/>
<line x1="340.0" y1="788.0" x2="570.0" y2="788.0" stroke="black"/>
<line x1="340.0" y1="732.0" x2="570.0" y2="788.0" stroke="#888"/>
<line x1="340.0" y1="788.0" x2="570.0" y2="732.0" stroke="#888"/>
<text x="381.4" y="728.0" fill="#0a6" font-size="10">W4^0</text>
<line x1="340.0" y1="760.0" x2="570.0" y2="760.0" stroke="black"/>
<line x1="340.0" y1="816.0" x2="570.0" y2="816.0" stroke="black"/>
<line x1="340.0" y1="760.0" x2="570.0" y2="816.0" stroke="#888"/>
<line x1="340.0" y1="816.0" x2="570.0" y2="760.0" stroke="#888"/>
<text x="381.4" y="756.0" fill="#0a6" font-size="10">W4^1</text>
<line x1="340.0" y1="844.0" x2="570.0" y2="844.0" stroke="black"/>
<line x1="340.0" y1="900.0" x2="570.0" y2="900.0" stroke="black"/>
<line x1="340.0" y1="844.0" x2="570.0" y2="900.0" stroke="#888"/>
<line x1="340.0" y1="900.0" x2="570.0" y2="844.0" stroke="#888"/>
<text x="381.4" y="840.0" fill="#0a6" font-size="10">W4^0</text>
<line x1="340.0" y1="872.0" x2="570.0" y2="872.0" stroke="black"/>
<line x1="340.0" y1="928.0" x2="570.0" y2="928.0" stroke="black"/>
<line x1="340.0" y1="872.0" x2="570.0" y2="928.0" stroke="#888"/>
<line x1="340.0" y1="928.0" x2="570.0" y2="872.0" stroke="#888"/>
<text x="381.4" y="868.0" fill="#0a6" font-size="10">W4^1</text>
<line x1="570.0" y1="60.0" x2="800.0" y2="60.0" stroke="black"/>
<line x1="570.0" y1="172.0" x2="800.0" y2="172.0" stroke="black"/>
<line x1="570.0" y1="60.0" x2="800.0" y2="172.0" stroke="#888"/>
<line x1="570.0" y1="172.0" x2="800.0" y2="60.0" stroke="#888"/>
<text x="611.4" y="56.0" fill="#0a6" font-size="10">W8^0</text>
<line x1="570.0" y1="88.0" x2="800.0" y2="88.0" stroke="black"/>
<line x1="570.0" y1="200.0" x2="800.0" y2="200.0" stroke="black"/>
<line x1="570.0" y1="88.0" x2="800.0" y2="200.0" stroke="#888"/>
<line x1="570.0" y1="200.0" x2="800.0" y2="88.0" stroke="#888"/>
<text x="611.4" y="84.0" fill="#0a6" font-size="10">W8^1</text>
<line x1="570.0" y1="116.0" x2="800.0" y2="116.0" stroke="black"/>
<line x1="570.0" y1="228.0" x2="800.0" y2="228.0" stroke="black"/>
<line x1="570.0" y1="116.0" x2="800.0" y2="228.0" stroke="#888"/>
<line x1="570.0" y1="228.0" x2="800.0" y2="116.0" stroke="#888"/>
<text x="611.4" y="112.0" fill="#0a6" font-size="10">W8^2</text>
<line x1="570.0" y1="144.0" x2="800.0" y2="144.0" stroke="black"/>
<line x1="570.0" y1="256.0" x2="800.0" y2="256.0" stroke="black"/>
<line x1="570.0" y1="144.0" x2="800.0" y2="256.0" stroke="#888"/>
<line x1="570.0" y1="256.0" x2="800.0" y2="144.0" stroke="#888"/>
<text x="611.4" y="140.0" fill="#0a6" font-size="10">W8^3</text>
<line x1="570.0" y1="284.0" x2="800.0" y2="284.0" stroke="black"/>
<line x1="570.0" y1="396.0" x2="800.0" y2="396.0" stroke="black"/>
<line x1="570.0" y1="284.0" x2="800.0" y2="396.0" stroke="#888"/>
<line x1="570.0" y1="396.0" x2="800.0" y2="284.0" stroke="#888"/>
<text x="611.4" y="280.0" fill="#0a6" font-size="10">W8^0</text>
<line x1="570.0" y1="312.0" x2="800.0" y2="312.0" stroke="black"/>
<line x1="570.0" y1="424.0" x2="800.0" y2="424.0" stroke="black"/>
<line x1="570.0" y1="312.0" x2="800.0" y2="424.0" stroke="#888"/>
<line x1="570.0" y1="424.0" x2="800.0" y2="312.0" stroke="#888"/>
<text x="611.4" y="308.0" fill="#0a6" font-size="10">W8^1</text>
<line x1="570.0" y1="340.0" x2="800.0" y2="340.0" stroke="black"/>
<line x1="570.0" y1="452.0" x2="800.0" y2="452.0" stroke="black"/>
<line x1="570.0" y1="340.0" x2="800.0" y2="452.0" stroke="#888"/>
<line x1="570.0" y1="452.0" x2="800.0" y2="340.0" stroke="#888"/>
<text x="611.4" y="336.0" fill="#0a6" font-size="10">W8^2</text>
<line x1="570.0" y1="368.0" x2="800.0" y2="368.0" stroke="black"/>
<line x1="570.0" y1="480.0" x2="800.0" y2="480.0" stroke="black"/>
<line x1="570.0" y1="368.0" x2="800.0" y2="480.0" stroke="#888"/>
<line x1="570.0" y1="480.0" x2="800.0" y2="368.0" stroke="#888"/>
<text x="611.4" y="364.0" fill="#0a6" font-size="10">W8^3</text>
<line x1="570.0" y1="508.0" x2="800.0" y2="508.0" stroke="black"/>
<line x1="570.0" y1="620.0" x2="800.0" y2="620.0" stroke="black"/>
<line x1="570.0" y1="508.0" x2="800.0" y2="620.0" stroke="#888"/>
<line x1="570.0" y1="620.0" x2="800.0" y2="508.0" stroke="#888"/>
<text x="611.4" y="504.0" fill="#0a6" font-size="10">W8^0</text>
<line x1="570.0" y1="536.0" x2="800.0" y2="536.0" stroke="black"/>
<line x1="570.0" y1="648.0" x2="800.0" y2="648.0" stroke="black"/>
<line x1="570.0" y1="536.0" x2="800.0" y2="648.0" stroke="#888"/>
<line x1="570.0" y1="648.0" x2="800.0" y2="536.0" stroke="#888"/>
<text x="611.4" y="532.0" fill="#0a6" font-size="10">W8^1</text>
<line x1="570.0" y1="564.0" x2="800.0" y2="564.0" stroke="black"/>
<line x1="570.0" y1="676.0" x2="800.0" y2="676.0" stroke="black"/>
<line x1="570.0" y1="564.0" x2="800.0" y2="676.0" stroke="#888"/>
<line x1="570.0" y1="676.0" x2="800.0" y2="564.0" stroke="#888"/>
<text x="611.4" y="560.0" fill="#0a6" font-size="10">W8^2</text>
<line x1="570.0" y1="592.0" x2="800.0" y2="592.0" stroke="black"/>
<line x1="570.0" y1="704.0" x2="800.0" y2="704.0" stroke="black"/>
<line x1="570.0" y1="592.0" x2="800.0" y2="704.0" stroke="#888"/>
<line x1="570.0" y1="704.0" x2="800.0" y2="592.0" stroke="#888"/>
<text x="611.4" y="588.0" fill="#0a6" font-size="10">W8^3</text>
<line x1="570.0" y1="732.0" x2="800.0" y2="732.0" stroke="black"/>
<line x1="570.0" y1="844.0" x2="800.0" y2="844.0" stroke="black"/>
<line x1="570.0" y1="732.0" x2="800.0" y2="844.0" stroke="#888"/>
<line x1="570.0" y1="844.0" x2="800.0" y2="732.0" stroke="#888"/>
<text x="611.4" y="728.0" fill="#0a6" font-size="10">W8^0</text>
<line x1="570.0" y1="760.0" x2="800.0" y2="760.0" stroke="black"/>
<line x1="570.0" y1="872.0" x2="800.0" y2="872.0" stroke="black"/>
<line x1="570.0" y1="760.0" x2="800.0" y2="872.0" stroke="#888"/>
<line x1="570.0" y1="872.0" x2="800.0" y2="760.0" stroke="#888"/>
<text x="611.4" y="756.0" fill="#0a6" font-size="10">W8^1</text>
<line x1="570.0" y1="788.0" x2="800.0" y2="788.0" stroke="black"/>
<line x1="570.0" y1="900.0" x2="800.0" y2="900.0" stroke="black"/>
<line x1="570.0" y1="788.0" x2="800.0" y2="900.0" stroke="#888"/>
<line x1="570.0" y1="900.0" x2="800.0" y2="788.0" stroke="#888"/>
<text x="611.4" y="784.0" fill="#0a6" font-size="10">W8^2</text>
<line x1="570.0" y1="816.0" x2="800.0" y2="816.0" stroke="black"/>
<line x1="570.0" y1="928.0" x2="800.0" y2="928.0" stroke="black"/>
<line x1="570.0" y1="816.0" x2="800.0" y2="928.0" stroke="#888"/>
<line x1="570.0" y1="928.0" x2="800.0" y2="816.0" stroke="#888"/>
<text x="611.4" y="812.0" fill="#0a6" font-size="10">W8^3</text>
<line x1="800.0" y1="60.0" x2="1030.0" y2="60.0" stroke="black"/>
<line x1="800.0" y1="284.0" x2="1030.0" y2="284.0" stroke="black"/>
<line x1="800.0" y1="60.0" x2="1030.0" y2="284.0" stroke="#888"/>
<line x1="800.0" y1="284.0" x2="1030.0" y2="60.0" stroke="#888"/>
<text x="841.4" y="56.0" fill="#0a6" font-size="10">W16^0</text>
<line x1="800.0" y1="88.0" x2="1030.0" y2="88.0" stroke="black"/>
<line x1="800.0" y1="312.0" x2="1030.0" y2="312.0" stroke="black"/>
<line x1="800.0" y1="88.0" x2="1030.0" y2="312.0" stroke="#888"/>
<line x1="800.0" y1="312.0" x2="1030.0" y2="88.0" stroke="#888"/>
<text x="841.4" y="84.0" fill="#0a6" font-size="10">W16^1</text>
<line x1="800.0" y1="116.0" x2="1030.0" y2="116.0" stroke="black"/>
<line x1="800.0" y1="340.0" x2="1030.0" y2="340.0" stroke="black"/>
<line x1="800.0" y1="116.0" x2="1030.0" y2="340.0" stroke="#888"/>
<line x1="800.0" y1="340.0" x2="1030.0" y2="116.0" stroke="#888"/>
<text x="841.4" y="112.0" fill="#0a6" font-size="10">W16^2</text>
<line x1="800.0" y1="144.0" x2="1030.0" y2="144.0" stroke="black"/>
<line x1="800.0" y1="368.0" x2="1030.0" y2="368.0" stroke="black"/>
<line x1="800.0" y1="144.0" x2="1030.0" y2="368.0" stroke="#888"/>
<line x1="800.0" y1="368.0" x2="1030.0" y2="144.0" stroke="#888"/>
<text x="841.4" y="140.0" fill="#0a6" font-size="10">W16^3</text>
<line x1="800.0" y1="172.0" x2="1030.0" y2="172.0" stroke="black"/>
<line x1="800.0" y1="396.0" x2="1030.0" y2="396.0" stroke="black"/>
<line x1="800.0" y1="172.0" x2="1030.0" y2="396.0" stroke="#888"/>
<line x1="800.0" y1="396.0" x2="1030.0" y2="172.0" stroke="#888"/>
<text x="841.4" y="168.0" fill="#0a6" font-size="10">W16^4</text>
<line x1="800.0" y1="200.0" x2="1030.0" y2="200.0" stroke="black"/>
<line x1="800.0" y1="424.0" x2="1030.0" y2="424.0" stroke="black"/>
<line x1="800.0" y1="200.0" x2="1030.0" y2="424.0" stroke="#888"/>
<line x1="800.0" y1="424.0" x2="1030.0" y2="200.0" stroke="#888"/>
<text x="841.4" y="196.0" fill="#0a6" font-size="10">W16^5</text>
<line x1="800.0" y1="228.0" x2="1030.0" y2="228.0" stroke="black"/>
<line x1="800.0" y1="452.0" x2="1030.0" y2="452.0" stroke="black"/>
<line x1="800.0" y1="228.0" x2="1030.0" y2="452.0" stroke="#888"/>
<line x1="800.0" y1="452.0" x2="1030.0" y2="228.0" stroke="#888"/>
<text x="841.4" y="224.0" fill="#0a6" font-size="10">W16^6</text>
<line x1="800.0" y1="256.0" x2="1030.0" y2="256.0" stroke="black"/>
<line x1="800.0" y1="480.0" x2="1030.0" y2="480.0" stroke="black"/>
<line x1="800.0" y1="256.0" x2="1030.0" y2="480.0" stroke="#888"/>
<line x1="800.0" y1="480.0" x2="1030.0" y2="256.0" stroke="#888"/>
<text x="841.4" y="252.0" fill="#0a6" font-size="10">W16^7</text>
<line x1="800.0" y1="508.0" x2="1030.0" y2="508.0" stroke="black"/>
<line x1="800.0" y1="732.0" x2="1030.0" y2="732.0" stroke="black"/>
<line x1="800.0" y1="508.0" x2="1030.0" y2="732.0" stroke="#888"/>
<line x1="800.0" y1="732.0" x2="1030.0" y2="508.0" stroke="#888"/>
<text x="841.4" y="504.0" fill="#0a6" font-size="10">W16^0</text>
<line x1="800.0" y1="536.0" x2="1030.0" y2="536.0" stroke="black"/>
<line x1="800.0" y1="760.0" x2="1030.0" y2="760.0" stroke="black"/>
<line x1="800.0" y1="536.0" x2="1030.0" y2="760.0" stroke="#888"/>
<line x1="800.0" y1="760.0" x2="1030.0" y2="536.0" stroke="#888"/>
<text x="841.4" y="532.0" fill="#0a6" font-size="10">W16^1</text>
<line x1="800.0" y1="564.0" x2="1030.0" y2="564.0" stroke="black"/>
<line x1="800.0" y1="788.0" x2="1030.0" y2="788.0" stroke="black"/>
<line x1="800.0" y1="564.0" x2="1030.0" y2="788.0" stroke="#888"/>
<line x1="800.0" y1="788.0" x2="1030.0" y2="564.0" stroke="#888"/>
<text x="841.4" y="560.0" fill="#0a6" font-size="10">W16^2</text>
<line x1="800.0" y1="592.0" x2="1030.0" y2="592.0" stroke="black"/>
<line x1="800.0" y1="816.0" x2="1030.0" y2="816.0" stroke="black"/>
<line x1="800.0" y1="592.0" x2="1030.0" y2="816.0" stroke="#888"/>
<line x1="800.0" y1="816.0" x2="1030.0" y2="592.0" stroke="#888"/>
<text x="841.4" y="588.0" fill="#0a6" font-size="10">W16^3</text>
<line x1="800.0" y1="620.0" x2="1030.0" y2="620.0" stroke="black"/>
<line x1="800.0" y1="844.0" x2="1030.0" y2="844.0" stroke="black"/>
<line x1="800.0" y1="620.0" x2="1030.0" y2="844.0" stroke="#888"/>
<line x1="800.0" y1="844.0" x2="1030.0" y2="620.0" stroke="#888"/>
<text x="841.4" y="616.0" fill="#0a6" font-size="10">W16^4</text>
<line x1="800.0" y1="648.0" x2="1030.0" y2="648.0" stroke="black"/>
<line x1="800.0" y1="872.0" x2="1030.0" y2="872.0" stroke="black"/>
<line x1="800.0" y1="648.0" x2="1030.0" y2="872.0" stroke="#888"/>
<line x1="800.0" y1="872.0" x2="1030.0" y2="648.0" stroke="#888"/>
<text x="841.4" y="644.0" fill="#0a6" font-size="10">W16^5</text>
<line x1="800.0" y1="676.0" x2="1030.0" y2="676.0" stroke="black"/>
<line x1="800.0" y1="900.0" x2="1030.0" y2="900.0" stroke="black"/>
<line x1="800.0" y1="676.0" x2="1030.0" y2="900.0" stroke="#888"/>
<line x1="800.0" y1="900.0" x2="1030.0" y2="676.0" stroke="#888"/>
<text x="841.4" y="672.0" fill="#0a6" font-size="10">W16^6</text>
<line x1="800.0" y1="704.0" x2="1030.0" y2="704.0" stroke="black"/>
<line x1="800.0" y1="928.0" x2="1030.0" y2="928.0" stroke="black"/>
<line x1="800.0" y1="704.0" x2="1030.0" y2="928.0" stroke="#888"/>
<line x1="800.0" y1="928.0" x2="1030.0" y2="704.0" stroke="#888"/>
<text x="841.4" y="700.0" fill="#0a6" font-size="10">W16^7</text>
<line x1="1030.0" y1="60.0" x2="1260.0" y2="60.0" stroke="black"/>
<line x1="1030.0" y1="508.0" x2="1260.0" y2="508.0" stroke="black"/>
<line x1="1030.0" y1="60.0" x2="1260.0" y2="508.0" stroke="#888"/>
<line x1="1030.0" y1="508.0" x2="1260.0" y2="60.0" stroke="#888"/>
<text x="1071.4" y="56.0" fill="#0a6" font-size="10">W32^0</text>
<line x1="1030.0" y1="88.0" x2="1260.0" y2="88.0" stroke="black"/>
<line x1="1030.0" y1="536.0" x2="1260.0" y2="536.0" stroke="black"/>
<line x1="1030.0" y1="88.0" x2="1260.0" y2="536.0" stroke="#888"/>
<line x1="1030.0" y1="536.0" x2="1260.0" y2="88.0" stroke="#888"/>
<text x="1071.4" y="84.0" fill="#0a6" font-size="10">W32^1</text>
<line x1="1030.0" y1="116.0" x2="1260.0" y2="116.0" stroke="black"/>
<line x1="1030.0" y1="564.0" x2="1260.0" y2="564.0" stroke="black"/>
<line x1="1030.0" y1="116.0" x2="1260.0" y2="564.0" stroke="#888"/>
<line x1="1030.0" y1="564.0" x2="1260.0" y2="116.0" stroke="#888"/>
<text x="1071.4" y="112.0" fill="#0a6" font-size="10">W32^2</text>
<line x1="1030.0" y1="144.0" x2="1260.0" y2="144.0" stroke="black"/>
<line x1="1030.0" y1="592.0" x2="1260.0" y2="592.0" stroke="black"/>
<line x1="1030.0" y1="144.0" x2="1260.0" y2="592.0" stroke="#888"/>
<line x1="1030.0" y1="592.0" x2="1260.0" y2="144.0" stroke="#888"/>
<text x="1071.4" y="140.0" fill="#0a6" font-size="10">W32^3</text>
<line x1="1030.0" y1="172.0" x2="1260.0" y2="172.0" stroke="black"/>
<line x1="1030.0" y1="620.0" x2="1260.0" y2="620.0" stroke="black"/>
<line x1="1030.0" y1="172.0" x2="1260.0" y2="620.0" stroke="#888"/>
<line x1="1030.0" y1="620.0" x2="1260.0" y2="172.0" stroke="#888"/>
<text x="1071.4" y="168.0" fill="#0a6" font-size="10">W32^4</text>
<line x1="1030.0" y1="200.0" x2="1260.0" y2="200.0" stroke="black"/>
<line x1="1030.0" y1="648.0" x2="1260.0" y2="648.0" stroke="black"/>
<line x1="1030.0" y1="200.0" x2="1260.0" y2="648.0" stroke="#888"/>
<line x1="1030.0" y1="648.0" x2="1260.0" y2="200.0" stroke="#888"/>
<text x="1071.4" y="196.0" fill="#0a6" font-size="10">W32^5</text>
<line x1="1030.0" y1="228.0" x2="1260.0" y2="228.0" stroke="black"/>
<line x1="1030.0" y1="676.0" x2="1260.0" y2="676.0" stroke="black"/>
<line x1="1030.0" y1="228.0" x2="1260.0" y2="676.0" stroke="#888"/>
<line x1="1030.0" y1="676.0" x2="1260.0" y2="228.0" stroke="#888"/>
<text x="1071.4" y="224.0" fill="#0a6" font-size="10">W32^6</text>
<line x1="1030.0" y1="256.0" x2="1260.0" y2="256.0" stroke="black"/>
<line x1="1030.0" y1="704.0" x2="1260.0" y2="704.0" stroke="black"/>
<line x1="1030.0" y1="256.0" x2="1260.0" y2="704.0" stroke="#888"/>
<line x1="1030.0" y1="704.0" x2="1260.0" y2="256.0" stroke="#888"/>
<text x="1071.4" y="252.0" fill="#0a6" font-size="10">W32^7</text>
<line x1="1030.0" y1="284.0" x2="1260.0" y2="284.0" stroke="black"/>
<line x1="1030.0" y1="732.0" x2="1260.0" y2="732.0" stroke="black"/>
<line x1="1030.0" y1="284.0" x2="1260.0" y2="732.0" stroke="#888"/>
<line x1="1030.0" y1="732.0" x2="1260.0" y2="284.0" stroke="#888"/>
<text x="1071.4" y="280.0" fill="#0a6" font-size="10">W32^8</text>
<line x1="1030.0" y1="312.0" x2="1260.0" y2="312.0" stroke="black"/>
<line x1="1030.0" y1="760.0" x2="1260.0" y2="760.0" stroke="black"/>
<line x1="1030.0" y1="312.0" x2="1260.0" y2="760.0" stroke="#888"/>
<line x1="1030.0" y1="760.0" x2="1260.0" y2="312.0" stroke="#888"/>
<text x="1071.4" y="308.0" fill="#0a6" font-size="10">W32^9</text>
<line x1="1030.0" y1="340.0" x2="1260.0" y2="340.0" stroke="black"/>
<line x1="1030.0" y1="788.0" x2="1260.0" y2="788.0" stroke="black"/>
<line x1="1030.0" y1="340.0" x2="1260.0" y2="788.0" stroke="#888"/>
<line x1="1030.0" y1="788.0" x2="1260.0" y2="340.0" stroke="#888"/>
<text x="1071.4" y="336.0" fill="#0a6" font-size="10">W32^10</text>
<line x1="1030.0" y1="368.0" x2="1260.0" y2="368.0" stroke="black"/>
<line x1="1030.0" y1="816.0" x2="1260.0" y2="816.0" stroke="black"/>
<line x1="1030.0" y1="368.0" x2="1260.0" y2="816.0" stroke="#888"/>
<line x1="1030.0" y1="816.0" x2="1260.0" y2="368.0" stroke="#888"/>
<text x="1071.4" y="364.0" fill="#0a6" font-size="10">W32^11</text>
<line x1="1030.0" y1="396.0" x2="1260.0" y2="396.0" stroke="black"/>
<line x1="1030.0" y1="844.0" x2="1260.0" y2="844.0" stroke="black"/>
<line x1="1030.0" y1="396.0" x2="1260.0" y2="844.0" stroke="#888"/>
<line x1="1030.0" y1="844.0" x2="1260.0" y2="396.0" stroke="#888"/>
<text x="1071.4" y="392.0" fill="#0a6" font-size="10">W32^12</text>
<line x1="1030.0" y1="424.0" x2="1260.0" y2="424.0" stroke="black"/>
<line x1="1030.0" y1="872.0" x2="1260.0" y2="872.0" stroke="black"/>
<line x1="1030.0" y1="424.0" x2="1260.0" y2="872.0" stroke="#888"/>
<line x1="1030.0" y1="872.0" x2="1260.0" y2="424.0" stroke="#888"/>
<text x="1071.4" y="420.0" fill="#0a6" font-size="10">W32^13</text>
<line x1="1030.0" y1="452.0" x2="1260.0" y2="452.0" stroke="black"/>
<line x1="1030.0" y1="900.0" x2="1260.0" y2="900.0" stroke="black"/>
<line x1="1030.0" y1="452.0" x2="1260.0" y2="900.0" stroke="#888"/>
<line x1="1030.0" y1="900.0" x2="1260.0" y2="452.0" stroke="#888"/>
<text x="1071.4" y="448.0" fill="#0a6" font-size="10">W32^14</text>
<line x1="1030.0" y1="480.0" x2="1260.0" y2="480.0" stroke="black"/>
<line x1="1030.0" y1="928.0" x2="1260.0" y2="928.0" stroke="black"/>
<line x1="1030.0" y1="480.0" x2="1260.0" y2="928.0" stroke="#888"/>
<line x1="1030.0" y1="928.0" x2="1260.0" y2="480.0" stroke="#888"/>
<text x="1071.4" y="476.0" fill="#0a6" font-size="10">W32^15</text>
<line x1="1260.0" y1="60.0" x2="1490.0" y2="60.0" stroke="black"/>
<line x1="1260.0" y1="88.0" x2="1490.0" y2="88.0" stroke="black"/>
<line x1="1260.0" y1="116.0" x2="1490.0" y2="116.0" stroke="black"/>
<line x1="1260.0" y1="144.0" x2="1490.0" y2="144.0" stroke="black"/>
<line x1="1260.0" y1="172.0" x2="1490.0" y2="172.0" stroke="black"/>
<line x1="1260.0" y1="200.0" x2="1490.0" y2="200.0" stroke="black"/>
<line x1="1260.0" y1="228.0" x2="1490.0" y2="228.0" stroke="black"/>
<line x1="1260.0" y1="256.0" x2="1490.0" y2="256.0" stroke="black"/>
<line x1="1260.0" y1="284.0" x2="1490.0" y2="284.0" stroke="black"/>
<line x1="1260.0" y1="312.0" x2="1490.0" y2="312.0" stroke="black"/>
<line x1="1260.0" y1="340.0" x2="1490.0" y2="340.0" stroke="black"/>
<line x1="1260.0" y1="368.0" x2="1490.0" y2="368.0" stroke="black"/>
<line x1="1260.0" y1="396.0" x2="1490.0" y2="396.0" stroke="black"/>
<line x1="1260.0" y1="424.0" x2="1490.0" y2="424.0" stroke="black"/>
<line x1="1260.0" y1="452.0" x2="1490.0" y2="452.0" stroke="black"/>
<line x1="1260.0" y1="480.0" x2="1490.0" y2="480.0" stroke="black"/>
<line x1="1260.0" y1="508.0" x2="1490.0" y2="508.0" stroke="black"/>
<line x1="1260.0" y1="536.0" x2="1490.0" y2="536.0" stroke="black"/>
<line x1="1260.0" y1="564.0" x2="1490.0" y2="564.0" stroke="black"/>
<line x1="1260.0" y1="592.0" x2="1490.0" y2="592.0" stroke="black"/>
<line x1="1260.0" y1="620.0" x2="1490.0" y2="620.0" stroke="black"/>
<line x1="1260.0" y1="648.0" x2="1490.0" y2="648.0" stroke="black"/>
<line x1="1260.0" y1="676.0" x2="1490.0" y2="676.0" stroke="black"/>
<line x1="1260.0" y1="704.0" x2="1490.0" y2="704.0" stroke="black"/>
<line x1="1260.0" y1="732.0" x2="1490.0" y2="732.0" stroke="black"/>
<line x1="1260.0" y1="760.0" x2="1490.0" y2="760.0" stroke="black"/>
<line x1="1260.0" y1="788.0" x2="1490.0" y2="788.0" stroke="black"/>
<line x1="1260.0" y1="816.0" x2="1490.0" y2="816.0" stroke="black"/>
<line x1="1260.0" y1="844.0" x2="1490.0" y2="844.0" stroke="black"/>
<line x1="1260.0" y1="872.0" x2="1490.0" y2="872.0" stroke="black"/>
<line x1="1260.0" y1="900.0" x2="1490.0" y2="900.0" stroke="black"/>
<line x1="1260.0" y1="928.0" x2="1490.0" y2="928.0" stroke="black"/>
</svg>